<svg id="Lager_1" xmlns="http://www.w3.org/2000/svg" viewBox="0 0 252 145"><style>.st0{fill:none;stroke:#020100;stroke-width:8}.st1{fill:#fdfdfb}.st2{fill:#bcc018}</style><path class="st0" d="M26.7 25.2c0-10.5 9-19.1 20-19.1M46.1 6.1c10.9-.5 20.1 8 20.7 19.1"/><path d="M117 59.3v18.6h-2.4v-3.2c-1 1.2-2.1 2.1-3.4 2.8-1.3.6-2.6.9-4.1.9-2.6 0-4.9-1-6.8-2.9-1.9-1.9-2.8-4.2-2.8-7 0-2.7.9-5 2.8-6.9 1.9-1.9 4.2-2.9 6.8-2.9 1.5 0 2.9.3 4.2 1s2.3 1.6 3.3 2.9v-3.4h2.4zm-9.6 1.8c-1.3 0-2.6.3-3.7 1s-2 1.6-2.7 2.8c-.7 1.2-1 2.4-1 3.8 0 1.3.3 2.6 1 3.8.7 1.2 1.6 2.1 2.7 2.8 1.1.7 2.4 1 3.7 1 1.3 0 2.6-.3 3.7-1 1.2-.7 2.1-1.6 2.7-2.7.6-1.1 1-2.4 1-3.8 0-2.2-.7-4-2.1-5.4-1.5-1.6-3.2-2.3-5.3-2.3zM122 52.1h2.4v25.8H122V52.1zM129.1 59.3h2.4V68c0 2.1.1 3.6.3 4.4.3 1.1 1 2 2 2.7 1 .7 2.1 1 3.5 1s2.5-.3 3.4-1c.9-.6 1.6-1.5 1.9-2.5.2-.7.4-2.2.4-4.6v-8.7h2.5v9.2c0 2.6-.3 4.5-.9 5.8-.6 1.3-1.5 2.3-2.7 3.1-1.2.7-2.7 1.1-4.5 1.1s-3.3-.4-4.6-1.1c-1.2-.7-2.1-1.8-2.7-3.1-.6-1.3-.9-3.3-.9-6v-9zM150.8 59.3h2.4v3.3c1-1.3 2-2.2 3.2-2.9 1.2-.6 2.4-1 3.8-1s2.6.4 3.7 1.1c1.1.7 1.9 1.7 2.4 2.9s.8 3.1.8 5.6v9.6h-2.4V69c0-2.1-.1-3.6-.3-4.3-.3-1.2-.8-2.2-1.6-2.8-.8-.6-1.8-.9-3.1-.9-1.5 0-2.8.5-3.9 1.4-1.1 1-1.9 2.1-2.3 3.6-.2.9-.3 2.6-.3 5.1v6.8h-2.4V59.3zM188.2 59.3h2.4v14.9c0 2.6-.2 4.5-.7 5.7-.6 1.7-1.7 3-3.3 4-1.6.9-3.4 1.4-5.6 1.4-1.6 0-3-.2-4.3-.7-1.3-.5-2.3-1.1-3.1-1.8-.8-.8-1.5-1.9-2.2-3.3h2.6c.7 1.2 1.6 2.1 2.7 2.7s2.5.9 4.2.9c1.6 0 3-.3 4.1-.9s1.9-1.4 2.4-2.3c.5-.9.7-2.4.7-4.5v-1c-.9 1.1-2 2-3.3 2.6-1.3.6-2.7.9-4.2.9-1.7 0-3.3-.4-4.8-1.3s-2.7-2-3.5-3.4-1.2-3-1.2-4.7.4-3.3 1.3-4.8 2-2.7 3.6-3.5c1.5-.9 3.1-1.3 4.8-1.3 1.4 0 2.7.3 3.9.9 1.2.6 2.4 1.5 3.5 2.9v-3.4zm-7 1.8c-1.4 0-2.6.3-3.8 1s-2.1 1.6-2.7 2.7c-.7 1.2-1 2.4-1 3.8 0 2 .7 3.7 2.1 5.1 1.4 1.3 3.1 2 5.3 2 2.2 0 4-.7 5.3-2 1.3-1.3 2-3.1 2-5.2 0-1.4-.3-2.7-.9-3.8-.6-1.1-1.5-2-2.6-2.6-1.2-.7-2.4-1-3.7-1zM205.2 61.3l-1.5 1.6c-1.3-1.2-2.5-1.9-3.8-1.9-.8 0-1.4.3-2 .8s-.8 1.1-.8 1.8c0 .6.2 1.2.7 1.7.5.6 1.4 1.2 2.9 2 1.8.9 3 1.8 3.6 2.7.6.9.9 1.8.9 2.9 0 1.5-.5 2.8-1.6 3.9s-2.4 1.6-4 1.6c-1.1 0-2.1-.2-3.1-.7-1-.5-1.8-1.1-2.4-1.9l1.5-1.7c1.2 1.4 2.5 2.1 3.9 2.1 1 0 1.8-.3 2.5-.9s1-1.3 1-2.2c0-.7-.2-1.3-.7-1.8-.4-.5-1.5-1.2-3-2-1.7-.9-2.8-1.7-3.4-2.6s-.9-1.8-.9-2.9c0-1.4.5-2.6 1.5-3.5 1-.9 2.2-1.4 3.7-1.4 1.5-.1 3.2.7 5 2.4z"/><g><path d="M117 96.6v18.6h-2.4V112c-1 1.2-2.1 2.1-3.4 2.8-1.3.6-2.6.9-4.1.9-2.6 0-4.9-1-6.8-2.9-1.9-1.9-2.8-4.2-2.8-7 0-2.7.9-5 2.8-6.9 1.9-1.9 4.2-2.9 6.8-2.9 1.5 0 2.9.3 4.2 1 1.2.7 2.3 1.6 3.3 2.9v-3.4h2.4zm-9.6 1.8c-1.3 0-2.6.3-3.7 1s-2 1.6-2.7 2.8c-.7 1.2-1 2.4-1 3.8 0 1.3.3 2.6 1 3.8s1.6 2.1 2.7 2.8c1.1.7 2.4 1 3.7 1 1.3 0 2.6-.3 3.7-1 1.2-.7 2.1-1.6 2.7-2.7.6-1.1 1-2.4 1-3.8 0-2.2-.7-4-2.1-5.4s-3.2-2.3-5.3-2.3zM122.4 96.6h2.4v3.3c1-1.3 2-2.2 3.2-2.9 1.2-.6 2.4-1 3.8-1s2.6.4 3.7 1.1c1.1.7 1.9 1.7 2.4 2.9s.8 3.1.8 5.6v9.6h-2.4v-8.9c0-2.1-.1-3.6-.3-4.3-.3-1.2-.8-2.2-1.6-2.8-.8-.6-1.8-.9-3.1-.9-1.5 0-2.8.5-3.9 1.4-1.1 1-1.9 2.1-2.3 3.6-.2.9-.3 2.6-.3 5.1v6.8h-2.4V96.6zM162.4 89.4v25.8H160V112c-1 1.2-2.1 2.1-3.4 2.8-1.3.6-2.6.9-4.1.9-2.6 0-4.9-1-6.8-2.9-1.9-1.9-2.8-4.2-2.8-7 0-2.7.9-5 2.8-6.9 1.9-1.9 4.2-2.9 6.8-2.9 1.5 0 2.9.3 4.2 1 1.2.7 2.3 1.6 3.3 2.9V89.4h2.4zm-9.6 9c-1.3 0-2.6.3-3.7 1s-2 1.6-2.7 2.8c-.7 1.2-1 2.4-1 3.8 0 1.3.3 2.6 1 3.8.7 1.2 1.6 2.1 2.7 2.8s2.4 1 3.7 1c1.3 0 2.6-.3 3.7-1s2.1-1.6 2.7-2.7 1-2.4 1-3.8c0-2.2-.7-4-2.1-5.4s-3.2-2.3-5.3-2.3zM167.5 89.4h2.4v25.8h-2.4V89.4zM193.5 96.6v18.6h-2.4V112c-1 1.2-2.1 2.1-3.4 2.8-1.3.6-2.6.9-4.1.9-2.6 0-4.9-1-6.8-2.9-1.9-1.9-2.8-4.2-2.8-7 0-2.7.9-5 2.8-6.9 1.9-1.9 4.2-2.9 6.8-2.9 1.5 0 2.9.3 4.2 1 1.2.7 2.3 1.6 3.3 2.9v-3.4h2.4zm-9.6 1.8c-1.3 0-2.6.3-3.7 1s-2 1.6-2.7 2.8c-.7 1.2-1 2.4-1 3.8 0 1.3.3 2.6 1 3.8s1.6 2.1 2.7 2.8c1.1.7 2.4 1 3.7 1 1.3 0 2.6-.3 3.7-1 1.2-.7 2.1-1.6 2.7-2.7.6-1.1.9-2.4.9-3.8 0-2.2-.7-4-2.1-5.4s-3.2-2.3-5.2-2.3zM197.9 96.6h2.5v2.7c.7-1.1 1.5-1.9 2.3-2.4s1.7-.8 2.5-.8c.7 0 1.4.2 2.1.6l-1.3 2c-.5-.2-.9-.3-1.3-.3-.8 0-1.6.3-2.3 1-.7.7-1.3 1.7-1.7 3.1-.3 1.1-.4 3.2-.4 6.4v6.3h-2.5V96.6zM209.4 96.6h2.4v3.3c1-1.3 2-2.2 3.2-2.9 1.2-.6 2.4-1 3.8-1s2.6.4 3.7 1.1c1.1.7 1.9 1.7 2.4 2.9s.8 3.1.8 5.6v9.6h-2.4v-8.9c0-2.1-.1-3.6-.3-4.3-.3-1.2-.8-2.2-1.6-2.8-.8-.6-1.8-.9-3.1-.9-1.5 0-2.8.5-3.9 1.4-1.1 1-1.9 2.1-2.3 3.6-.2.9-.3 2.6-.3 5.1v6.8h-2.4V96.6zM249.4 96.6v18.6H247V112c-1 1.2-2.1 2.1-3.4 2.8-1.3.6-2.6.9-4.1.9-2.6 0-4.9-1-6.8-2.9-1.9-1.9-2.8-4.2-2.8-7 0-2.7.9-5 2.8-6.9 1.9-1.9 4.2-2.9 6.8-2.9 1.5 0 2.9.3 4.2 1 1.2.7 2.3 1.6 3.3 2.9v-3.4h2.4zm-9.6 1.8c-1.3 0-2.6.3-3.7 1s-2 1.6-2.7 2.8c-.7 1.2-1 2.4-1 3.8 0 1.3.3 2.6 1 3.8.7 1.2 1.6 2.1 2.7 2.8 1.1.7 2.4 1 3.7 1 1.3 0 2.6-.3 3.7-1s2.1-1.6 2.7-2.7 1-2.4 1-3.8c0-2.2-.7-4-2.1-5.4-1.5-1.5-3.2-2.3-5.3-2.3z"/></g><path d="M2 23.6h88.8v119.6H2z"/><g><path class="st1" d="M76.2 78.6h-8.4V35.4L50.1 78.6h-7.6L25 35.7v42.9h-8.5V28h12.6l17.2 42.1L63.5 28h12.7v50.6z"/></g><g><path class="st2" d="M16.7 81H25v24.5h42.7V81h8.4v58.5h-8.4v-28.2H25v28.2h-8.4V81z"/></g></svg>