<?xml version="1.0" encoding="utf-8"?>
<!-- Generator: Adobe Illustrator 19.1.0, SVG Export Plug-In . SVG Version: 6.00 Build 0)  -->
<svg version="1.1" id="Lager_1" xmlns="http://www.w3.org/2000/svg" xmlns:xlink="http://www.w3.org/1999/xlink" x="0px" y="0px"
	 viewBox="0 0 252 145" style="enable-background:new 0 0 252 145;" xml:space="preserve">
<style type="text/css">
	.st0{fill:none;stroke:#020100;stroke-width:8;}
	.st1{fill:#FDFDFB;}
	.st2{fill:#BCC018;}
</style>
<path class="st0" d="M26.7,25.2c0-10.5,9-19.1,20-19.1"/>
<path class="st0" d="M46.1,6.1C57,5.6,66.2,14.1,66.8,25.2"/>
<g>
	<path d="M117,59.3v18.6h-2.4v-3.2c-1,1.2-2.1,2.1-3.4,2.8c-1.3,0.6-2.6,0.9-4.1,0.9c-2.6,0-4.9-1-6.8-2.9c-1.9-1.9-2.8-4.2-2.8-7
		c0-2.7,0.9-5,2.8-6.9c1.9-1.9,4.2-2.9,6.8-2.9c1.5,0,2.9,0.3,4.2,1s2.3,1.6,3.3,2.9v-3.4H117z M107.4,61.1c-1.3,0-2.6,0.3-3.7,1
		c-1.1,0.7-2,1.6-2.7,2.8c-0.7,1.2-1,2.4-1,3.8c0,1.3,0.3,2.6,1,3.8c0.7,1.2,1.6,2.1,2.7,2.8c1.1,0.7,2.4,1,3.7,1
		c1.3,0,2.6-0.3,3.7-1c1.2-0.7,2.1-1.6,2.7-2.7c0.6-1.1,1-2.4,1-3.8c0-2.2-0.7-4-2.1-5.4C111.2,61.8,109.5,61.1,107.4,61.1z"/>
	<path d="M122,52.1h2.4v25.8H122V52.1z"/>
	<path d="M129.1,59.3h2.4V68c0,2.1,0.1,3.6,0.3,4.4c0.3,1.1,1,2,2,2.7c1,0.7,2.1,1,3.5,1s2.5-0.3,3.4-1c0.9-0.6,1.6-1.5,1.9-2.5
		c0.2-0.7,0.4-2.2,0.4-4.6v-8.7h2.5v9.2c0,2.6-0.3,4.5-0.9,5.8c-0.6,1.3-1.5,2.3-2.7,3.1c-1.2,0.7-2.7,1.1-4.5,1.1s-3.3-0.4-4.6-1.1
		c-1.2-0.7-2.1-1.8-2.7-3.1c-0.6-1.3-0.9-3.3-0.9-6V59.3z"/>
	<path d="M150.8,59.3h2.4v3.3c1-1.3,2-2.2,3.2-2.9c1.2-0.6,2.4-1,3.8-1c1.4,0,2.6,0.4,3.7,1.1c1.1,0.7,1.9,1.7,2.4,2.9
		c0.5,1.2,0.8,3.1,0.8,5.6v9.6h-2.4V69c0-2.1-0.1-3.6-0.3-4.3c-0.3-1.2-0.8-2.2-1.6-2.8c-0.8-0.6-1.8-0.9-3.1-0.9
		c-1.5,0-2.8,0.5-3.9,1.4c-1.1,1-1.9,2.1-2.3,3.6c-0.2,0.9-0.3,2.6-0.3,5.1v6.8h-2.4V59.3z"/>
	<path d="M188.2,59.3h2.4v14.9c0,2.6-0.2,4.5-0.7,5.7c-0.6,1.7-1.7,3-3.3,4c-1.6,0.9-3.4,1.4-5.6,1.4c-1.6,0-3-0.2-4.3-0.7
		c-1.3-0.5-2.3-1.1-3.1-1.8c-0.8-0.8-1.5-1.9-2.2-3.3h2.6c0.7,1.2,1.6,2.1,2.7,2.7s2.5,0.9,4.2,0.9c1.6,0,3-0.3,4.1-0.9
		s1.9-1.4,2.4-2.3c0.5-0.9,0.7-2.4,0.7-4.5v-1c-0.9,1.1-2,2-3.3,2.6c-1.3,0.6-2.7,0.9-4.2,0.9c-1.7,0-3.3-0.4-4.8-1.3
		c-1.5-0.9-2.7-2-3.5-3.4s-1.2-3-1.2-4.7s0.4-3.3,1.3-4.8s2-2.7,3.6-3.5c1.5-0.9,3.1-1.3,4.8-1.3c1.4,0,2.7,0.3,3.9,0.9
		c1.2,0.6,2.4,1.5,3.5,2.9V59.3z M181.2,61.1c-1.4,0-2.6,0.3-3.8,1s-2.1,1.6-2.7,2.7c-0.7,1.2-1,2.4-1,3.8c0,2,0.7,3.7,2.1,5.1
		c1.4,1.3,3.1,2,5.3,2c2.2,0,4-0.7,5.3-2c1.3-1.3,2-3.1,2-5.2c0-1.4-0.3-2.7-0.9-3.8c-0.6-1.1-1.5-2-2.6-2.6
		C183.7,61.4,182.5,61.1,181.2,61.1z"/>
	<path d="M205.2,61.3l-1.5,1.6c-1.3-1.2-2.5-1.9-3.8-1.9c-0.8,0-1.4,0.3-2,0.8s-0.8,1.1-0.8,1.8c0,0.6,0.2,1.2,0.7,1.7
		c0.5,0.6,1.4,1.2,2.9,2c1.8,0.9,3,1.8,3.6,2.7c0.6,0.9,0.9,1.8,0.9,2.9c0,1.5-0.5,2.8-1.6,3.9c-1.1,1.1-2.4,1.6-4,1.6
		c-1.1,0-2.1-0.2-3.1-0.7c-1-0.5-1.8-1.1-2.4-1.9l1.5-1.7c1.2,1.4,2.5,2.1,3.9,2.1c1,0,1.8-0.3,2.5-0.9s1-1.3,1-2.2
		c0-0.7-0.2-1.3-0.7-1.8c-0.4-0.5-1.5-1.2-3-2c-1.7-0.9-2.8-1.7-3.4-2.6s-0.9-1.8-0.9-2.9c0-1.4,0.5-2.6,1.5-3.5
		c1-0.9,2.2-1.4,3.7-1.4C201.7,58.8,203.4,59.6,205.2,61.3z"/>
</g>
<g>
	<path d="M117,96.6v18.6h-2.4V112c-1,1.2-2.1,2.1-3.4,2.8c-1.3,0.6-2.6,0.9-4.1,0.9c-2.6,0-4.9-1-6.8-2.9c-1.9-1.9-2.8-4.2-2.8-7
		c0-2.7,0.9-5,2.8-6.9c1.9-1.9,4.2-2.9,6.8-2.9c1.5,0,2.9,0.3,4.2,1c1.2,0.7,2.3,1.6,3.3,2.9v-3.4H117z M107.4,98.4
		c-1.3,0-2.6,0.3-3.7,1c-1.1,0.7-2,1.6-2.7,2.8c-0.7,1.2-1,2.4-1,3.8c0,1.3,0.3,2.6,1,3.8s1.6,2.1,2.7,2.8c1.1,0.7,2.4,1,3.7,1
		c1.3,0,2.6-0.3,3.7-1c1.2-0.7,2.1-1.6,2.7-2.7c0.6-1.1,1-2.4,1-3.8c0-2.2-0.7-4-2.1-5.4S109.5,98.4,107.4,98.4z"/>
	<path d="M122.4,96.6h2.4v3.3c1-1.3,2-2.2,3.2-2.9c1.2-0.6,2.4-1,3.8-1c1.4,0,2.6,0.4,3.7,1.1c1.1,0.7,1.9,1.7,2.4,2.9
		c0.5,1.2,0.8,3.1,0.8,5.6v9.6h-2.4v-8.9c0-2.1-0.1-3.6-0.3-4.3c-0.3-1.2-0.8-2.2-1.6-2.8c-0.8-0.6-1.8-0.9-3.1-0.9
		c-1.5,0-2.8,0.5-3.9,1.4c-1.1,1-1.9,2.1-2.3,3.6c-0.2,0.9-0.3,2.6-0.3,5.1v6.8h-2.4V96.6z"/>
	<path d="M162.4,89.4v25.8H160V112c-1,1.2-2.1,2.1-3.4,2.8c-1.3,0.6-2.6,0.9-4.1,0.9c-2.6,0-4.9-1-6.8-2.9c-1.9-1.9-2.8-4.2-2.8-7
		c0-2.7,0.9-5,2.8-6.9c1.9-1.9,4.2-2.9,6.8-2.9c1.5,0,2.9,0.3,4.2,1c1.2,0.7,2.3,1.6,3.3,2.9V89.4H162.4z M152.8,98.4
		c-1.3,0-2.6,0.3-3.7,1s-2,1.6-2.7,2.8c-0.7,1.2-1,2.4-1,3.8c0,1.3,0.3,2.6,1,3.8c0.7,1.2,1.6,2.1,2.7,2.8s2.4,1,3.7,1
		c1.3,0,2.6-0.3,3.7-1s2.1-1.6,2.7-2.7s1-2.4,1-3.8c0-2.2-0.7-4-2.1-5.4S154.9,98.4,152.8,98.4z"/>
	<path d="M167.5,89.4h2.4v25.8h-2.4V89.4z"/>
	<path d="M193.5,96.6v18.6h-2.4V112c-1,1.2-2.1,2.1-3.4,2.8c-1.3,0.6-2.6,0.9-4.1,0.9c-2.6,0-4.9-1-6.8-2.9c-1.9-1.9-2.8-4.2-2.8-7
		c0-2.7,0.9-5,2.8-6.9c1.9-1.9,4.2-2.9,6.8-2.9c1.5,0,2.9,0.3,4.2,1c1.2,0.7,2.3,1.6,3.3,2.9v-3.4H193.5z M183.9,98.4
		c-1.3,0-2.6,0.3-3.7,1c-1.1,0.7-2,1.6-2.7,2.8c-0.7,1.2-1,2.4-1,3.8c0,1.3,0.3,2.6,1,3.8s1.6,2.1,2.7,2.8c1.1,0.7,2.4,1,3.7,1
		c1.3,0,2.6-0.3,3.7-1c1.2-0.7,2.1-1.6,2.7-2.7c0.6-1.1,0.9-2.4,0.9-3.8c0-2.2-0.7-4-2.1-5.4S185.9,98.4,183.9,98.4z"/>
	<path d="M197.9,96.6h2.5v2.7c0.7-1.1,1.5-1.9,2.3-2.4s1.7-0.8,2.5-0.8c0.7,0,1.4,0.2,2.1,0.6l-1.3,2c-0.5-0.2-0.9-0.3-1.3-0.3
		c-0.8,0-1.6,0.3-2.3,1c-0.7,0.7-1.3,1.7-1.7,3.1c-0.3,1.1-0.4,3.2-0.4,6.4v6.3h-2.5V96.6z"/>
	<path d="M209.4,96.6h2.4v3.3c1-1.3,2-2.2,3.2-2.9c1.2-0.6,2.4-1,3.8-1c1.4,0,2.6,0.4,3.7,1.1c1.1,0.7,1.9,1.7,2.4,2.9
		c0.5,1.2,0.8,3.1,0.8,5.6v9.6h-2.4v-8.9c0-2.1-0.1-3.6-0.3-4.3c-0.3-1.2-0.8-2.2-1.6-2.8c-0.8-0.6-1.8-0.9-3.1-0.9
		c-1.5,0-2.8,0.5-3.9,1.4c-1.1,1-1.9,2.1-2.3,3.6c-0.2,0.9-0.3,2.6-0.3,5.1v6.8h-2.4V96.6z"/>
	<path d="M249.4,96.6v18.6H247V112c-1,1.2-2.1,2.1-3.4,2.8c-1.3,0.6-2.6,0.9-4.1,0.9c-2.6,0-4.9-1-6.8-2.9c-1.9-1.9-2.8-4.2-2.8-7
		c0-2.7,0.9-5,2.8-6.9c1.9-1.9,4.2-2.9,6.8-2.9c1.5,0,2.9,0.3,4.2,1c1.2,0.7,2.3,1.6,3.3,2.9v-3.4H249.4z M239.8,98.4
		c-1.3,0-2.6,0.3-3.7,1c-1.1,0.7-2,1.6-2.7,2.8c-0.7,1.2-1,2.4-1,3.8c0,1.3,0.3,2.6,1,3.8c0.7,1.2,1.6,2.1,2.7,2.8
		c1.1,0.7,2.4,1,3.7,1c1.3,0,2.6-0.3,3.7-1s2.1-1.6,2.7-2.7s1-2.4,1-3.8c0-2.2-0.7-4-2.1-5.4C243.6,99.2,241.9,98.4,239.8,98.4z"/>
</g>
<rect x="2" y="23.6" width="88.8" height="119.6"/>
<g>
	<path class="st1" d="M76.2,78.6h-8.4V35.4L50.1,78.6h-7.6L25,35.7v42.9h-8.5V28h12.6l17.2,42.1L63.5,28h12.7V78.6z"/>
</g>
<g>
	<path class="st2" d="M16.7,81H25v24.5h42.7V81h8.4v58.5h-8.4v-28.2H25v28.2h-8.4V81z"/>
</g>
</svg>
